<?xml version="1.0" standalone="no"?>
<!DOCTYPE svg PUBLIC "-//W3C//DTD SVG 20010904//EN"
 "http://www.w3.org/TR/2001/REC-SVG-20010904/DTD/svg10.dtd">
<svg version="1.0" xmlns="http://www.w3.org/2000/svg"
 width="640.000000pt" height="640.000000pt" viewBox="0 0 640.000000 640.000000"
 preserveAspectRatio="xMidYMid meet">
<metadata>
Created by potrace 1.11, written by Peter Selinger 2001-2013
</metadata>
<g transform="translate(0.000000,640.000000) scale(0.100000,-0.100000)"
fill="#000000" stroke="none">
<path d="M4604 5438 c-17 -21 -28 -37 -58 -93 -6 -11 -18 -29 -27 -40 -9 -11
-19 -36 -22 -56 -4 -31 -25 -81 -64 -154 -26 -51 -61 -133 -68 -159 -3 -17
-14 -41 -24 -55 -23 -32 -107 -210 -128 -270 -8 -24 -27 -64 -43 -90 -38 -62
-82 -174 -121 -312 -18 -63 -43 -131 -56 -152 -23 -37 -23 -41 -21 -260 3
-214 4 -222 23 -222 19 0 20 8 23 219 2 171 5 223 16 235 19 22 40 78 71 191
31 112 77 231 110 280 13 19 35 64 48 100 29 75 92 210 124 260 11 19 27 55
33 80 7 24 20 55 31 68 10 14 19 31 19 39 0 7 8 26 17 40 20 30 39 77 57 140
6 23 19 50 29 61 9 10 17 24 17 31 0 7 11 26 24 42 l24 28 6 -23 c3 -12 28
-56 54 -98 27 -41 55 -90 61 -110 6 -19 23 -46 36 -58 14 -13 25 -31 25 -39 0
-9 12 -38 25 -66 14 -27 25 -55 25 -61 0 -6 7 -17 15 -24 8 -7 15 -21 15 -30
0 -10 11 -27 24 -37 13 -11 34 -40 47 -66 40 -77 120 -220 141 -251 20 -28 20
-29 2 -40 -13 -7 -164 -13 -464 -16 -437 -5 -445 -5 -445 -25 0 -20 8 -20 454
-23 344 -2 457 1 468 10 12 10 23 3 59 -37 68 -77 98 -123 134 -210 18 -44 50
-106 71 -138 22 -32 39 -61 39 -64 0 -14 34 -83 41 -83 4 0 11 -21 15 -47 3
-27 12 -55 19 -63 7 -8 15 -24 17 -35 2 -12 11 -20 23 -20 25 0 34 59 12 83
-8 10 -18 36 -22 59 -4 24 -11 45 -15 48 -11 7 -40 65 -40 80 0 7 -7 18 -15
25 -21 18 -76 116 -106 191 -33 84 -58 125 -103 168 -42 40 -43 47 -15 54 33
9 20 41 -18 47 -35 5 -58 35 -123 160 -19 36 -46 83 -61 106 -16 22 -31 53
-35 68 -3 15 -17 34 -30 43 -13 8 -24 23 -24 33 0 10 -7 25 -15 34 -8 8 -15
21 -15 29 0 8 -6 20 -14 26 -7 6 -21 36 -30 66 -10 29 -25 60 -33 67 -9 7 -26
36 -38 63 -13 28 -43 82 -69 120 -25 39 -46 76 -46 83 0 20 -39 72 -54 72 -7
0 -21 -10 -32 -22z"/>
<path d="M663 5434 c-4 -12 -8 -13 -13 -3 -5 6 -15 9 -24 6 -13 -5 -16 -22
-16 -80 0 -41 -7 -94 -15 -117 -22 -62 -36 -165 -46 -335 -5 -82 -14 -231 -20
-330 -6 -99 -12 -306 -12 -460 -2 -274 -2 -280 18 -280 19 0 20 8 25 285 3
157 7 286 8 288 1 2 15 -6 31 -17 26 -19 44 -21 170 -21 129 0 145 2 192 24
27 14 59 36 70 50 11 14 29 28 40 31 11 4 27 21 37 40 9 18 34 65 55 104 l37
72 0 164 c0 98 -4 166 -10 170 -5 3 -10 21 -10 39 0 33 -23 91 -41 101 -5 4
-9 14 -9 23 0 17 -176 192 -193 192 -4 0 -29 10 -55 22 -99 47 -207 62 -219
32z m107 -46 c25 -7 60 -20 78 -30 18 -10 39 -18 47 -18 22 0 185 -150 185
-171 0 -10 4 -21 10 -24 13 -8 37 -63 45 -105 4 -19 10 -104 12 -189 4 -144 3
-157 -16 -182 -12 -16 -21 -34 -21 -41 -1 -38 -139 -188 -173 -188 -9 0 -19
-4 -22 -10 -4 -6 -60 -10 -136 -10 -117 0 -133 2 -164 23 l-36 22 6 135 c13
368 30 546 60 630 8 23 15 73 15 110 l0 67 33 -4 c17 -2 52 -9 77 -15z"/>
<path d="M1714 5237 c-8 -22 2 -185 14 -232 5 -22 20 -67 32 -100 12 -33 30
-98 40 -145 10 -47 32 -146 50 -220 17 -74 36 -162 41 -195 13 -88 25 -140 50
-230 12 -44 24 -98 26 -120 2 -22 12 -58 22 -80 26 -57 51 -137 51 -161 0 -11
16 -43 35 -70 21 -29 35 -61 35 -79 1 -34 37 -103 63 -119 12 -8 22 -8 35 0
14 9 18 32 24 125 6 112 17 209 38 339 6 36 15 97 20 135 10 79 35 201 50 240
5 14 10 55 10 90 0 44 4 64 14 68 17 7 46 95 46 139 0 18 8 56 18 84 11 28 22
73 26 102 8 59 28 113 50 132 9 7 16 28 16 48 0 51 14 32 49 -67 16 -45 36
-90 44 -100 7 -9 26 -53 40 -99 15 -46 50 -132 77 -191 28 -59 50 -117 50
-127 0 -11 18 -66 40 -122 22 -55 40 -117 40 -136 0 -19 9 -55 20 -81 11 -26
20 -59 20 -74 0 -15 4 -31 9 -36 4 -6 16 -44 26 -85 9 -41 21 -83 26 -92 5
-10 9 -27 9 -38 0 -33 68 -120 95 -120 42 0 42 1 65 285 4 55 13 120 19 145
12 50 28 129 40 205 14 85 68 265 132 443 11 29 22 74 25 100 5 42 23 91 60
162 18 35 44 91 56 120 6 14 15 35 20 46 13 29 7 58 -14 62 -15 3 -26 -13 -58
-93 -5 -11 -31 -67 -58 -125 -29 -62 -52 -126 -55 -155 -6 -53 -27 -123 -58
-190 -10 -22 -34 -101 -54 -175 -35 -130 -41 -155 -64 -285 -6 -33 -16 -80
-22 -105 -6 -25 -15 -94 -20 -155 -9 -113 -25 -231 -28 -206 0 8 -7 22 -14 30
-15 18 -28 58 -52 156 -9 39 -20 79 -24 90 -29 77 -51 158 -51 185 0 17 -18
77 -40 132 -22 56 -40 111 -40 123 0 11 -16 54 -36 95 -40 84 -104 246 -104
264 0 6 -18 47 -40 90 -22 43 -40 85 -40 93 0 7 -11 36 -25 63 -14 27 -25 63
-25 80 0 63 -60 49 -72 -16 -4 -21 -10 -55 -14 -74 -3 -19 -14 -44 -23 -55
-26 -30 -38 -66 -46 -130 -4 -31 -16 -80 -26 -109 -11 -28 -19 -64 -19 -81 0
-36 -20 -96 -40 -120 -7 -9 -16 -44 -18 -78 -2 -34 -15 -109 -29 -167 -14 -58
-29 -136 -34 -175 -5 -38 -13 -104 -20 -145 -23 -161 -30 -218 -35 -299 -4
-56 -9 -80 -15 -70 -5 8 -9 26 -9 40 0 15 -16 50 -35 78 -19 28 -35 63 -35 78
-1 16 -7 39 -15 53 -8 14 -14 35 -15 47 0 12 -8 37 -19 56 -10 18 -21 51 -23
73 -3 21 -17 84 -31 139 -39 147 -47 183 -47 208 0 23 -41 213 -66 307 -8 30
-17 66 -20 80 -2 14 -9 45 -15 70 -5 25 -9 47 -9 50 1 3 -8 30 -21 60 -31 79
-41 123 -48 230 -5 79 -9 95 -24 98 -9 2 -20 -3 -23 -11z"/>
<path d="M6235 3488 c-3 -7 -7 -107 -9 -223 -7 -291 -15 -427 -26 -450 -10
-21 -15 -81 -30 -325 -5 -85 -14 -204 -20 -265 -7 -60 -13 -141 -14 -180 -1
-64 1 -70 19 -70 22 0 18 -17 46 250 5 55 14 170 19 255 14 230 20 293 30 315
12 26 20 193 23 475 2 207 1 225 -16 228 -9 2 -19 -2 -22 -10z"/>
<path d="M2675 3308 c-2 -7 -6 -238 -8 -513 -2 -275 -7 -516 -10 -535 -3 -19
-8 -48 -12 -65 -3 -16 -8 -68 -11 -115 -3 -47 -7 -96 -10 -110 -9 -39 -37
-261 -54 -418 -6 -65 -18 -118 -30 -143 -11 -21 -20 -49 -20 -63 l0 -25 517
-1 c448 0 520 -2 541 -16 13 -9 39 -14 60 -12 29 2 37 7 37 23 0 15 -9 21 -38
26 -21 3 -43 11 -50 18 -8 8 -147 11 -509 11 -274 0 -498 2 -498 5 0 4 7 19
15 36 9 16 20 73 26 127 9 100 23 214 40 337 5 39 14 117 18 175 10 107 17
161 31 240 5 25 8 265 7 535 -2 458 -3 490 -20 493 -9 2 -19 -2 -22 -10z"/>
<path d="M650 3214 c-6 -14 -10 -147 -10 -303 0 -225 -3 -285 -15 -314 -8 -21
-15 -67 -15 -106 0 -64 -2 -70 -21 -73 -31 -4 -46 -32 -30 -52 8 -9 21 -16 30
-16 14 0 15 -13 9 -117 -6 -112 -15 -185 -37 -333 -6 -36 -15 -110 -21 -165
-6 -55 -15 -129 -21 -165 -6 -36 -13 -131 -16 -211 -4 -135 -6 -147 -23 -152
-28 -7 -25 -35 6 -49 18 -9 30 -9 42 -1 14 8 18 36 24 174 3 90 11 193 17 229
6 36 15 110 21 165 6 55 15 129 21 165 23 148 30 211 35 318 6 111 7 114 28
107 11 -4 66 -10 121 -14 l100 -6 127 -78 c70 -43 160 -104 200 -135 40 -31
95 -68 122 -83 45 -25 81 -63 158 -168 18 -25 45 -59 61 -77 15 -17 33 -49 41
-70 17 -50 51 -105 97 -158 36 -41 55 -73 79 -131 7 -16 16 -38 21 -47 5 -10
14 -27 19 -38 6 -11 15 -29 20 -40 6 -11 10 -32 10 -48 0 -32 16 -52 42 -52
23 0 35 27 19 43 -6 6 -11 21 -11 34 0 13 -4 32 -10 43 -5 11 -14 28 -18 38
-5 9 -14 26 -19 37 -6 11 -16 34 -23 50 -25 61 -44 91 -80 130 -38 41 -92 131
-105 175 -4 14 -18 37 -32 51 -14 15 -39 47 -56 72 -70 99 -134 170 -172 189
-22 12 -83 53 -136 93 -53 40 -133 94 -178 121 l-82 49 183 5 c104 3 194 11
209 17 15 6 59 13 99 14 104 3 170 17 210 43 20 13 50 27 66 30 38 9 82 53
128 130 33 55 36 66 36 139 0 75 -1 80 -30 105 -16 15 -30 32 -30 39 0 23
-112 132 -167 164 -31 18 -70 45 -88 60 -18 16 -66 45 -106 65 -41 20 -94 49
-119 64 -25 16 -58 32 -74 36 -16 4 -41 13 -55 20 -20 11 -92 14 -309 14
l-282 0 -10 -26z m614 -46 c34 -12 68 -27 76 -34 8 -6 58 -33 110 -59 52 -26
112 -63 132 -81 21 -18 59 -44 86 -58 50 -25 120 -94 145 -142 8 -16 24 -38
36 -48 17 -16 21 -31 21 -81 0 -55 -4 -69 -38 -121 -36 -54 -82 -106 -82 -91
0 8 -72 -22 -90 -38 -20 -18 -55 -24 -165 -31 -49 -3 -110 -12 -134 -20 -50
-16 -480 -21 -497 -5 -18 16 -145 61 -174 61 l-30 0 0 64 c0 35 7 80 15 99 12
30 15 91 15 322 l0 285 256 0 c238 0 261 -2 318 -22z m-529 -808 l20 -9 -20 0
c-11 0 -27 4 -35 9 -13 9 -13 10 0 9 8 0 24 -4 35 -9z"/>
<path d="M4554 3175 c-3 -8 -3 -19 1 -25 4 -7 206 -10 631 -10 383 0 624 -4
624 -9 0 -6 -4 -13 -10 -16 -5 -3 -10 -13 -10 -21 0 -9 -14 -32 -30 -52 -17
-20 -66 -82 -109 -137 -145 -183 -193 -240 -210 -249 -56 -30 -123 -81 -141
-106 -25 -35 -107 -101 -217 -175 -57 -38 -89 -67 -107 -98 -14 -24 -55 -71
-90 -106 -36 -34 -68 -72 -72 -84 -7 -22 -30 -54 -82 -113 -15 -17 -44 -57
-65 -90 -20 -32 -51 -77 -68 -99 -16 -22 -50 -71 -75 -108 -25 -37 -68 -94
-95 -127 -55 -67 -63 -96 -24 -96 14 0 25 4 25 9 0 11 558 1 670 -12 153 -17
190 -23 196 -32 3 -5 33 -9 68 -9 34 0 67 -5 72 -10 7 -7 62 -10 145 -8 126 3
134 4 134 23 0 19 -8 20 -125 23 -68 1 -129 7 -134 12 -6 6 -38 10 -72 10 -35
0 -65 4 -68 9 -6 8 -35 13 -211 32 -49 6 -210 13 -357 15 -150 3 -268 9 -268
14 0 5 6 13 13 17 7 4 30 35 51 68 20 33 57 87 81 120 25 33 62 87 84 120 22
33 52 74 66 90 58 67 85 103 85 115 0 6 30 42 66 80 36 37 77 86 90 108 15 26
45 52 86 77 71 42 118 80 220 178 39 37 92 79 119 94 28 15 66 48 88 77 22 28
50 62 63 76 13 14 47 56 77 94 29 37 59 75 66 85 7 9 34 42 59 73 25 32 46 64
46 72 0 8 5 18 10 21 14 9 13 68 -2 83 -9 9 -167 12 -650 12 -549 0 -639 -2
-644 -15z"/>
<path d="M6132 1418 c2 -15 10 -23 23 -23 13 0 21 8 23 23 3 18 -1 22 -23 22
-22 0 -26 -4 -23 -22z"/>
</g>
</svg>
